<?xml version="1.0" encoding="utf-8"?>
<svg width="800px" height="800px" viewBox="0 0 24 24" fill="none" xmlns="http://www.w3.org/2000/svg" xmlns:bx="https://boxy-svg.com"><defs/><g id="SVGRepo_bgCarrier" stroke-width="0"/><g id="SVGRepo_tracerCarrier" stroke-linecap="round" stroke-linejoin="round"/><g id="SVGRepo_iconCarrier"><path d="M 16.65 3.86 L 7.35 3.86 C 4.4 3.86 2 6.26 2 9.21 L 2 14.79 C 2 17.74 4.4 20.14 7.35 20.14 L 16.65 20.14 C 19.6 20.14 22 17.74 22 14.79 L 22 9.21 C 22 6.26 19.6 3.86 16.65 3.86 Z M 14.5 10.16 C 14.5 9.61 14.95 9.16 15.5 9.16 C 16.05 9.16 16.5 9.61 16.5 10.16 C 16.5 10.71 16.05 11.17 15.5 11.17 C 14.95 11.17 14.5 10.73 14.5 10.18 L 14.5 10.16 Z M 10.13 14.21 C 9.98 14.36 9.79 14.43 9.6 14.43 C 9.41 14.43 9.22 14.36 9.07 14.21 L 8.04 13.18 L 7.05 14.17 C 6.9 14.32 6.71 14.39 6.52 14.39 C 6.33 14.39 6.14 14.32 5.99 14.17 C 5.7 13.88 5.7 13.4 5.99 13.11 L 6.98 12.12 L 6.02 11.16 C 5.73 10.87 5.73 10.39 6.02 10.1 C 6.31 9.81 6.79 9.81 7.08 10.1 L 8.04 11.06 L 9.03 10.07 C 9.32 9.78 9.8 9.78 10.09 10.07 C 10.38 10.36 10.38 10.84 10.09 11.13 L 9.1 12.12 L 10.13 13.15 C 10.42 13.44 10.42 13.92 10.13 14.21 Z M 13.54 13.14 C 12.99 13.14 12.53 12.69 12.53 12.14 C 12.53 11.59 12.97 11.14 13.52 11.14 L 13.54 11.14 C 14.09 11.14 14.54 11.59 14.54 12.14 C 14.54 12.69 14.1 13.14 13.54 13.14 Z M 15.5 15.11 C 14.95 15.11 14.5 14.67 14.5 14.12 L 14.5 14.1 C 14.5 13.55 14.95 13.1 15.5 13.1 C 16.05 13.1 16.5 13.55 16.5 14.1 C 16.5 14.65 16.06 15.11 15.5 15.11 Z M 17.48 13.14 C 16.93 13.14 16.47 12.69 16.47 12.14 C 16.47 11.59 16.91 11.14 17.46 11.14 L 17.48 11.14 C 18.03 11.14 18.48 11.59 18.48 12.14 C 18.48 12.69 18.04 13.14 17.48 13.14 Z" fill="#fe6b01"/></g></svg>